<svg xmlns="http://www.w3.org/2000/svg" viewBox="0 0 1040 250"><rect width="1040" height="250" fill="#07090a"/><text x="520" y="36" text-anchor="middle" font-family="monospace" font-size="13" letter-spacing="6" fill="#2bbf57">POWERED BY</text><g transform="translate(108.0,70)"><circle cx="28" cy="28" r="17" fill="none" stroke="#33ff66" stroke-width="2.5"/><polyline points="18,29 25,36 39,18" fill="none" stroke="#33ff66" stroke-width="2.8" stroke-linecap="round" stroke-linejoin="round"/></g><text x="136.0" y="172" text-anchor="middle" font-family="monospace" font-size="16" font-weight="bold" fill="#cdddd2">deal</text><text x="136.0" y="194" text-anchor="middle" font-family="monospace" font-size="12.5" fill="#6f8478">contracts</text><g transform="translate(300.0,70)"><circle cx="28" cy="28" r="13" fill="none" stroke="#33ff66" stroke-width="2.5"/><line x1="28" y1="4" x2="28" y2="15" stroke="#33ff66" stroke-width="2.5" stroke-linecap="round"/><line x1="28" y1="41" x2="28" y2="52" stroke="#33ff66" stroke-width="2.5" stroke-linecap="round"/><line x1="4" y1="28" x2="15" y2="28" stroke="#33ff66" stroke-width="2.5" stroke-linecap="round"/><line x1="41" y1="28" x2="52" y2="28" stroke="#33ff66" stroke-width="2.5" stroke-linecap="round"/><circle cx="28" cy="28" r="2.5" fill="#33ff66"/></g><text x="328.0" y="172" text-anchor="middle" font-family="monospace" font-size="16" font-weight="bold" fill="#cdddd2">CrossHair</text><text x="328.0" y="194" text-anchor="middle" font-family="monospace" font-size="12.5" fill="#6f8478">proof</text><g transform="translate(492.0,70)"><circle cx="28" cy="28" r="3" fill="#33ff66"/><line x1="36.0" y1="28.0" x2="51.0" y2="28.0" stroke="#33ff66" stroke-width="2.4" stroke-linecap="round"/><line x1="33.7" y1="33.7" x2="44.3" y2="44.3" stroke="#33ff66" stroke-width="2.4" stroke-linecap="round"/><line x1="28.0" y1="36.0" x2="28.0" y2="51.0" stroke="#33ff66" stroke-width="2.4" stroke-linecap="round"/><line x1="22.3" y1="33.7" x2="11.7" y2="44.3" stroke="#33ff66" stroke-width="2.4" stroke-linecap="round"/><line x1="20.0" y1="28.0" x2="5.0" y2="28.0" stroke="#33ff66" stroke-width="2.4" stroke-linecap="round"/><line x1="22.3" y1="22.3" x2="11.7" y2="11.7" stroke="#33ff66" stroke-width="2.4" stroke-linecap="round"/><line x1="28.0" y1="20.0" x2="28.0" y2="5.0" stroke="#33ff66" stroke-width="2.4" stroke-linecap="round"/><line x1="33.7" y1="22.3" x2="44.3" y2="11.7" stroke="#33ff66" stroke-width="2.4" stroke-linecap="round"/></g><text x="520.0" y="172" text-anchor="middle" font-family="monospace" font-size="16" font-weight="bold" fill="#cdddd2">cosmic-ray</text><text x="520.0" y="194" text-anchor="middle" font-family="monospace" font-size="12.5" fill="#6f8478">mutation</text><g transform="translate(684.0,70)"><polyline points="24,14 12,28 24,42" fill="none" stroke="#33ff66" stroke-width="2.6" stroke-linecap="round" stroke-linejoin="round"/><polyline points="32,14 44,28 32,42" fill="none" stroke="#33ff66" stroke-width="2.6" stroke-linecap="round" stroke-linejoin="round"/><circle cx="28" cy="28" r="2.4" fill="#33ff66"/></g><text x="712.0" y="172" text-anchor="middle" font-family="monospace" font-size="16" font-weight="bold" fill="#cdddd2">mypy</text><text x="712.0" y="194" text-anchor="middle" font-family="monospace" font-size="12.5" fill="#6f8478">types</text><g transform="translate(876.0,70)"><circle cx="16" cy="21" r="6" fill="none" stroke="#33ff66" stroke-width="2.2"/><circle cx="16" cy="35" r="6" fill="none" stroke="#33ff66" stroke-width="2.2"/><circle cx="28" cy="21" r="6" fill="none" stroke="#33ff66" stroke-width="2.2"/><circle cx="28" cy="35" r="6" fill="none" stroke="#33ff66" stroke-width="2.2"/><circle cx="40" cy="21" r="6" fill="none" stroke="#33ff66" stroke-width="2.2"/><circle cx="40" cy="35" r="6" fill="none" stroke="#33ff66" stroke-width="2.2"/></g><text x="904.0" y="172" text-anchor="middle" font-family="monospace" font-size="16" font-weight="bold" fill="#cdddd2">bubblewrap</text><text x="904.0" y="194" text-anchor="middle" font-family="monospace" font-size="12.5" fill="#6f8478">sandbox</text></svg>